PathFileType	4	(X/Y/Z)	29_2_43_p0_0-761.trc
DataRate	CameraRate	NumFrames	NumMarkers	Units	OrigDataRate	OrigDataStartFrame	OrigNumFrames
60.0	60.0	7	27	m	60.0	381	762
Frame#	Time	RHip			RKnee			RAnkle			RBigToe			RSmallToe			RHeel			LHip			LKnee			LAnkle			LBigToe			LSmallToe			LHeel			Neck			Head			Nose			RShoulder			RElbow			RWrist			RThumb			RIndex			RPinky			LShoulder			LElbow			LWrist			LThumb			LIndex			LPinky			
		X1	Y1	Z1	X2	Y2	Z2	X3	Y3	Z3	X4	Y4	Z4	X5	Y5	Z5	X6	Y6	Z6	X7	Y7	Z7	X8	Y8	Z8	X9	Y9	Z9	X10	Y10	Z10	X11	Y11	Z11	X12	Y12	Z12	X13	Y13	Z13	X14	Y14	Z14	X15	Y15	Z15	X16	Y16	Z16	X17	Y17	Z17	X18	Y18	Z18	X19	Y19	Z19	X20	Y20	Z20	X21	Y21	Z21	X22	Y22	Z22	X23	Y23	Z23	X24	Y24	Z24	X25	Y25	Z25	X26	Y26	Z26	X27	Y27	Z27	
381	6.35	0.3412846187920561	0.5571832473157325	0.9567868318700503	0.31399705316430654	0.7102465957785694	1.3582261859330502	0.2720225596875299	0.8434084800626739	1.7515499634868945	0.28443630185879015	0.6474900774106189	1.7756965353272756	0.32106035154298407	0.6742360033328586	1.7745269184167882	0.25964256512913786	0.8563205357039867	1.7897119737138396	0.13804712334461353	0.5728675265496355	0.9451000950280486	0.11838507535479136	0.6945455298998514	1.3315282130159791	0.0968341551149758	0.7890638267902317	1.7301893183885604	0.12703386718875284	0.6203301303778103	1.7603625010976807	0.06696767800183573	0.6491702246602031	1.757535151117087	0.10529369197099231	0.8226020672801964	1.773300977538465	0.28231510741094895	0.44431083988876957	0.41629463644075526	0.2939972847515181	0.3232553664176318	0.18274189846846664	0.27584749636401756	0.32597964376329186	0.32473078525662546	0.42326990849020885	0.46203907818439166	0.49318002385690723	0.46360577279942533	0.5391819674302344	0.7589665277949782	0.4397400361910317	0.5283958181974013	0.9880991401063833	0.3927252913176327	0.5219051548427668	1.102029064016969	0.4030986542497016	0.535773225667618	1.1255519245920187	0.41650179951137273	0.5609219745002986	1.1028618345769665	0.12612941718227702	0.4385991410197657	0.47303573023682677	0.04920358881586179	0.5333381152736731	0.7156890074690507	0.04424976917911715	0.5015074894795731	0.9596583578987445	0.06864707791402012	0.5264480000370924	1.0607859498747498	0.05901830726442058	0.5242833970746666	1.0789072023226285	0.007601415158804982	0.5793528500731213	1.073388478380265
382	6.366666666666666	0.34133297804581597	0.5574412595211945	0.9569058233597094	0.314054264782081	0.7103149438365285	1.3582787043945685	0.2751412062424683	0.8595712573478028	1.7575549027644508	0.28704759271502595	0.6592271698202907	1.7806956169158605	0.32619417167264697	0.696266536076699	1.7811546845974686	0.26191290826758085	0.868970895772928	1.7864678032249173	0.137983962142897	0.5733608326749705	0.9452479093493742	0.11723162669496652	0.6958187040238232	1.3359541433353155	0.09630204578991083	0.786337824457028	1.7248141560550565	0.12671336314170958	0.6194955239797463	1.7603959819511144	0.06702023703734493	0.6501917951425236	1.759249782961903	0.10556820012781987	0.8239203811985041	1.774437804959746	0.28624626152436494	0.44606339726998134	0.41625602239167475	0.29412588916195553	0.3217381169863802	0.17986434203269458	0.2794296529902295	0.3266864138769055	0.32483177595852686	0.423205262984929	0.46217189727477376	0.49302616237808716	0.4637106393709632	0.5394552684524283	0.7590223980388108	0.43975245018070597	0.5289886595007267	0.9882231496049435	0.3925929909801622	0.5220736978964227	1.1020321359444003	0.4029799882376593	0.5358397134768755	1.1254832875823333	0.4164935666881871	0.5610718750478669	1.1028356176593903	0.12610811119948118	0.43869888501359616	0.4729800709108938	0.049203882173647455	0.5330942283553268	0.7192549670560462	0.04417508162074254	0.5013427633817819	0.9596523205598149	0.06482560949034687	0.5249312201495525	1.0602945442548062	0.056483170953478636	0.5098633995300769	1.072152011031394	0.0071871325469534085	0.579422809987784	1.073245820697971
383	6.383333333333334	0.3416949207285185	0.5595611254874909	0.9609228526808306	0.3140770295053978	0.7102529187793115	1.3582696426286862	0.2803923700186769	0.8417840989925489	1.750647906169289	0.2868211731814637	0.6581516979877131	1.7798774574536405	0.32346642824878075	0.6840190219729977	1.778811097468652	0.2618192797319732	0.8683456408831468	1.7858342380902483	0.13796036989155688	0.5732431778499996	0.9451963383002719	0.1172499257747488	0.6957726467900791	1.3359254150529918	0.09628158616321762	0.7864984032647903	1.7247747069193304	0.12704131630429447	0.6210048274164945	1.7606356344712963	0.06686599269710283	0.6500028067136617	1.7583815307478443	0.10692610010005839	0.8224036245984148	1.7682371669571957	0.28627606986385024	0.4459004023813848	0.41620273007366354	0.29411120645840777	0.3214640367205481	0.17984107236190247	0.28022424317672706	0.3147925914319726	0.32535639376293707	0.4231166160676271	0.46262672854121856	0.4896999480467431	0.46360565387630137	0.539299470361415	0.7588902700681134	0.4403542195524321	0.5283965869143119	0.9844710501384291	0.3926903273004493	0.5217233686146827	1.1018481820270951	0.40312974443420757	0.5355139830955185	1.125230592218355	0.41744811274721705	0.5600392272440352	1.0987489977056388	0.12612559745047208	0.43861573001574544	0.4729466065118099	0.04348096828013172	0.546552580587847	0.7167355385114548	0.0442105997575623	0.5015526063859036	0.9597115680286191	0.0686622327933072	0.526270746112121	1.0606078189205224	0.05698086616153074	0.5121731587134954	1.0762517536203855	0.007520009958134256	0.579798868418393	1.073548805118042
384	6.4	0.33696407092809505	0.5556999489239862	0.9565000287285126	0.3139296243333947	0.7103186415599562	1.3579706768299387	0.2773014907922093	0.8259916670026071	1.7445303074733416	0.2858536949231831	0.6610279853772867	1.786830277968097	0.32457456553714265	0.6880155051081227	1.7806897574109075	0.2621761169981825	0.8693827284866075	1.7873609831559405	0.13800740059720998	0.5733610332077379	0.9451762077064908	0.11795312027051856	0.6919305325628192	1.3260233689139123	0.09607206834460685	0.7873807738770038	1.7207161624646918	0.12783783770650037	0.6173511927012941	1.7557142082502988	0.06708723257675431	0.6500643910305397	1.759248121297217	0.10735446615106324	0.8227879926620282	1.7688382641278133	0.2863848123217041	0.445612502166706	0.41955686400929565	0.29397176168557715	0.3205715677090997	0.1797506069745425	0.28387949353487324	0.31496856530283873	0.32853915365854086	0.42312979364927916	0.46268497434473194	0.4896739857286917	0.46370793378460456	0.5395258315063812	0.7590013114235378	0.440267250300747	0.5282390959739744	0.9844355124922453	0.39248587475833496	0.5226350482109716	1.0980679126915354	0.4030068468519722	0.5355282122611627	1.1254698037462554	0.41292216909134827	0.5728213358105002	1.1016269133985028	0.12621838322705956	0.4406305473068231	0.47666778916415425	0.049169968097309065	0.5331386320631846	0.7193509520843384	0.044266189993754534	0.5014435267218978	0.9595897671774831	0.06873385040464651	0.5259348793390802	1.0604313100424263	0.05684059944334047	0.5096708641070746	1.0722832069351176	0.007634339599953665	0.5794930484280895	1.0732436571850008
385	6.416666666666667	0.3325297500005876	0.5700170641474918	0.9588320369820355	0.3139330048430624	0.7103429275284681	1.3580555219529928	0.27210595814579924	0.8435318755361612	1.751549903631657	0.287128491539163	0.6594976291291677	1.7812073415570755	0.32997306406257515	0.6941108158744227	1.783464062285344	0.2622374444787529	0.8691760416087951	1.7873417981552422	0.13256881652787594	0.586996990576528	0.9473292939617518	0.1183315908490776	0.6943780769756982	1.3313765154116834	0.09603781311050795	0.78733557567152	1.720663218887249	0.12792206963667985	0.618140068096595	1.7558420424860715	0.06693529164435516	0.6498138126948677	1.7585865556293656	0.10665340061516179	0.8196346660858344	1.7637109245039766	0.2892370628828897	0.4574632605551329	0.41955801910388624	0.293776429944669	0.3204171956230973	0.17970654589821972	0.28030978158446507	0.31434133030420697	0.3286601768191697	0.4231153741525129	0.4626665693600369	0.4896919848901492	0.4635755046669132	0.5394286729682604	0.7588412131350644	0.4402692142092138	0.5281895885853783	0.9843812806755382	0.3924090094300274	0.5225654011694293	1.0980753128887362	0.4029436203780448	0.5353440506783774	1.125487192926226	0.41725112394811603	0.5599368378362739	1.0989921117409163	0.12620775320514213	0.4404995302287871	0.4767401380628202	0.04351888404382669	0.5459819913986512	0.7203634405175291	0.04421520329809046	0.5015787958623718	0.9597068581657473	0.06874657481295537	0.5261278586177077	1.0606527615144634	0.05715442168031158	0.5119736406827046	1.0764108236899015	0.0076515763257271495	0.5796651804155792	1.073526647805766
386	6.433333333333334	0.3368967991420183	0.5554044140044301	0.9563048598847934	0.3139452091812638	0.7102892333055392	1.3579729100774762	0.2773172748414467	0.8260657726506591	1.7446909504570745	0.2868940497027516	0.6583462417387084	1.7803569513817317	0.32381608023868175	0.6850333710091884	1.7794710992669995	0.26280640538356115	0.8714411640086352	1.7913692518940163	0.13339412276235404	0.5859746787611235	0.943635831577199	0.118360309775591	0.6943862607048862	1.3313081021197002	0.09605369229517363	0.7873712534778203	1.7208124041224568	0.12682557971580133	0.6209409299306695	1.7605622180948142	0.06686011426499613	0.6494933988942282	1.7577335119591155	0.10562087174391131	0.822992329296667	1.7735046700204038	0.2892519888323772	0.45749439408502623	0.41959844371974453	0.2900833579066068	0.3199880278125456	0.18289610701482695	0.28029507470086557	0.3143594750029157	0.32875197077681245	0.4232292310351236	0.4622613355067928	0.4929831812905847	0.46336649041758166	0.5397946210811431	0.754823610293608	0.44021258115718914	0.5282983257148315	0.9843698334012605	0.39332600315104255	0.5212861325217701	1.0936909972150164	0.4030230750879879	0.535214518107641	1.125242287405188	0.4172605079327184	0.559938877963215	1.0988851571016682	0.12619898999494936	0.4406588992190931	0.47667886986841934	0.043446002567583145	0.5462639697561386	0.7203109021359483	0.04507937130516443	0.5005880124913935	0.9561873589009956	0.06880351453109856	0.5258772894292997	1.060233417354994	0.05697838172213262	0.5096605191015123	1.0721436954063595	0.007803083752010309	0.5785956289939788	1.073101413545156
387	6.45	0.33687057324445585	0.5556715977128048	0.9563941593297204	0.31396924740640014	0.7103698320905265	1.3580310732437606	0.2760189364447385	0.827568386852742	1.7495259605755549	0.29149102855464426	0.641212996027456	1.7728905955736958	0.32365185742171587	0.684202048549103	1.7791851978093718	0.2627707591928822	0.8711317457618696	1.7912238481889295	0.13257839756286022	0.5870142650636233	0.9472612782932563	0.11793534080142251	0.6918399684033187	1.326028650449246	0.09606091641499512	0.7873653365470376	1.7207322687335553	0.12808916831003614	0.6193343203148013	1.756125246816063	0.06702431582745523	0.6495639230461888	1.7580228863024603	0.10558699538814066	0.8235271086576061	1.7740110378584804	0.2892776410146377	0.4575936228333833	0.41973143576533095	0.29007388916487464	0.32016833032309017	0.18304390113203414	0.27599702262993764	0.3253578354131512	0.32823708574470833	0.4232310615289124	0.4622623703474258	0.49291024780545967	0.4633858053089456	0.5397823651712106	0.7547787052966513	0.4401548866910078	0.528451782605268	0.9843710319330239	0.39233197564274114	0.5223518950670942	1.0978451677892176	0.4029161929163952	0.5353636296137563	1.125194361280961	0.4128652064557251	0.5727815821108988	1.1017148088172504	0.12834016659956154	0.4524464482602235	0.4768783811666621	0.04339493295989354	0.546344693184274	0.7202719385074764	0.04503810539298918	0.5005569397618476	0.9562439530577094	0.06969367257819033	0.5251313277675239	1.0568522115204104	0.057213543539502906	0.5118555052424083	1.0762191657612492	0.007877011737580807	0.5787445483995401	1.0731849017331203
